<svg xmlns="http://www.w3.org/2000/svg" xmlns:xlink="http://www.w3.org/1999/xlink" width="1366" zoomAndPan="magnify" viewBox="0 0 1024.5 576" height="768" preserveAspectRatio="xMidYMid meet" version="1.0"><defs><clipPath id="9efa7d1ba4"><path d="M 290 257 L 733 257 L 733 575.859375 L 290 575.859375 Z M 290 257 " clip-rule="nonzero"/></clipPath><clipPath id="9d252297c1"><path d="M 212.816406 3 L 811.316406 3 L 811.316406 269 L 212.816406 269 Z M 212.816406 3 " clip-rule="nonzero"/></clipPath></defs><g clip-path="url(#9efa7d1ba4)"><path fill="#231f20" d="M 705.621094 534.453125 C 705.621094 542.117188 699.398438 548.226562 691.855469 548.226562 L 595.140625 548.226562 C 587.476562 548.226562 581.375 542 581.375 534.453125 L 581.375 390.964844 C 581.375 368.089844 562.820312 349.523438 539.957031 349.523438 L 484.65625 349.523438 C 461.792969 349.523438 443.238281 368.089844 443.238281 390.964844 L 443.238281 534.453125 C 443.238281 542.117188 437.015625 548.226562 429.472656 548.226562 L 332.398438 548.226562 C 324.738281 548.226562 318.632812 542 318.632812 534.453125 L 318.632812 257.898438 L 290.980469 257.898438 L 290.980469 534.453125 C 290.980469 557.328125 309.535156 575.894531 332.398438 575.894531 L 429.113281 575.894531 C 451.976562 575.894531 470.53125 557.328125 470.53125 534.453125 L 470.53125 390.964844 C 470.53125 383.300781 476.753906 377.191406 484.296875 377.191406 L 539.597656 377.191406 C 547.257812 377.191406 553.363281 383.417969 553.363281 390.964844 L 553.363281 534.453125 C 553.363281 557.328125 571.917969 575.894531 594.78125 575.894531 L 691.496094 575.894531 C 714.359375 575.894531 732.914062 557.328125 732.914062 534.453125 L 732.914062 257.898438 L 705.261719 257.898438 Z M 705.621094 534.453125 " fill-opacity="1" fill-rule="nonzero"/></g><g clip-path="url(#9d252297c1)"><path fill="#231f20" d="M 539 13.800781 C 523.320312 0.386719 500.695312 0.386719 485.015625 13.800781 L 212.816406 247.359375 L 230.773438 268.316406 L 503.089844 34.761719 C 508.355469 30.328125 515.898438 30.328125 521.042969 34.761719 L 793.363281 268.316406 L 811.316406 247.359375 Z M 539 13.800781 " fill-opacity="1" fill-rule="nonzero"/></g></svg>