<svg xmlns="http://www.w3.org/2000/svg" xmlns:xlink="http://www.w3.org/1999/xlink" width="1366" zoomAndPan="magnify" viewBox="0 0 1024.5 576" height="768" preserveAspectRatio="xMidYMid meet" version="1.0"><defs><clipPath id="f5bea3cf6f"><path d="M 237 10 L 796.832031 10 L 796.832031 574 L 237 574 Z M 237 10 " clip-rule="nonzero"/></clipPath></defs><g clip-path="url(#f5bea3cf6f)"><path fill="#000000" d="M 765.769531 99.648438 C 707.242188 99.515625 648.714844 99.441406 590.1875 99.421875 L 559.925781 99.421875 C 559.203125 99.367188 558.484375 99.394531 557.765625 99.496094 C 557.046875 99.597656 556.351562 99.773438 555.671875 100.027344 C 554.992188 100.277344 554.347656 100.601562 553.738281 100.992188 C 553.128906 101.382812 552.566406 101.832031 552.054688 102.34375 C 551.542969 102.859375 551.089844 103.417969 550.699219 104.027344 C 550.308594 104.636719 549.984375 105.28125 549.734375 105.960938 C 549.480469 106.636719 549.304688 107.335938 549.203125 108.050781 C 549.097656 108.769531 549.074219 109.488281 549.128906 110.210938 L 549.484375 174.128906 C 521.421875 167.078125 500.957031 173.039062 487.003906 192.328125 C 486.234375 193.386719 485.503906 194.476562 484.816406 195.589844 C 484.128906 196.703125 483.484375 197.84375 482.882812 199.007812 C 482.277344 200.171875 481.722656 201.355469 481.207031 202.558594 C 480.695312 203.765625 480.226562 204.988281 479.808594 206.230469 C 479.386719 207.46875 479.015625 208.722656 478.6875 209.992188 C 478.363281 211.261719 478.085938 212.539062 477.855469 213.828125 C 477.628906 215.121094 477.449219 216.417969 477.316406 217.71875 C 477.1875 219.023438 477.105469 220.328125 477.070312 221.636719 C 477.039062 222.949219 477.058594 224.257812 477.125 225.5625 C 477.191406 226.871094 477.304688 228.175781 477.472656 229.476562 C 477.636719 230.773438 477.851562 232.066406 478.113281 233.347656 C 478.375 234.632812 478.6875 235.902344 479.046875 237.164062 C 479.402344 238.421875 479.808594 239.667969 480.261719 240.898438 C 480.714844 242.125 481.214844 243.335938 481.757812 244.527344 C 482.300781 245.71875 482.890625 246.890625 483.523438 248.035156 C 484.15625 249.183594 484.832031 250.304688 485.546875 251.402344 C 498.800781 271.921875 517.902344 278.152344 549.171875 271.996094 L 549.171875 326.96875 L 527.199219 326.96875 C 511.433594 326.96875 495.648438 326.96875 479.84375 326.96875 C 475.546875 326.929688 470 326.96875 467.378906 332.792969 C 464.917969 338.265625 468.054688 342.117188 470.832031 345.523438 C 472.441406 347.40625 473.8125 349.449219 474.9375 351.652344 C 476.066406 353.859375 476.917969 356.164062 477.5 358.570312 C 478.082031 360.976562 478.371094 363.417969 478.375 365.894531 C 478.375 368.371094 478.089844 370.8125 477.511719 373.222656 C 477.171875 374.855469 476.710938 376.457031 476.125 378.019531 C 475.539062 379.582031 474.835938 381.09375 474.015625 382.550781 C 473.199219 384.003906 472.269531 385.390625 471.238281 386.703125 C 470.203125 388.015625 469.078125 389.238281 467.855469 390.378906 C 466.632812 391.515625 465.328125 392.554688 463.945312 393.492188 C 462.5625 394.429688 461.117188 395.257812 459.605469 395.972656 C 458.09375 396.6875 456.539062 397.28125 454.933594 397.753906 C 453.332031 398.230469 451.703125 398.578125 450.046875 398.800781 C 448.441406 399.011719 446.828125 399.101562 445.207031 399.074219 C 443.585938 399.046875 441.976562 398.902344 440.378906 398.640625 C 438.777344 398.378906 437.207031 398 435.664062 397.507812 C 434.121094 397.015625 432.621094 396.414062 431.164062 395.703125 C 429.707031 394.992188 428.3125 394.179688 426.976562 393.261719 C 425.640625 392.347656 424.375 391.339844 423.1875 390.242188 C 422 389.140625 420.894531 387.960938 419.878906 386.699219 C 418.863281 385.4375 417.945312 384.109375 417.125 382.714844 C 416.273438 381.277344 415.542969 379.78125 414.925781 378.230469 C 414.3125 376.679688 413.816406 375.089844 413.449219 373.460938 C 413.078125 371.832031 412.835938 370.1875 412.722656 368.523438 C 412.609375 366.855469 412.625 365.191406 412.769531 363.53125 C 412.914062 361.867188 413.1875 360.226562 413.585938 358.605469 C 413.988281 356.984375 414.507812 355.402344 415.152344 353.863281 C 415.800781 352.324219 416.558594 350.84375 417.433594 349.421875 C 418.308594 348 419.289062 346.65625 420.371094 345.386719 C 420.855469 345.027344 421.304688 344.632812 421.71875 344.195312 C 422.132812 343.761719 422.507812 343.296875 422.839844 342.796875 C 423.175781 342.296875 423.460938 341.773438 423.707031 341.222656 C 423.949219 340.675781 424.140625 340.109375 424.289062 339.527344 C 424.433594 338.945312 424.527344 338.355469 424.570312 337.753906 C 424.613281 337.15625 424.601562 336.558594 424.542969 335.960938 C 424.480469 335.363281 424.371094 334.777344 424.207031 334.199219 C 424.046875 333.621094 423.835938 333.0625 423.574219 332.519531 C 423.316406 331.976562 423.011719 331.460938 422.664062 330.972656 C 422.316406 330.484375 421.929688 330.027344 421.5 329.605469 C 421.074219 329.183594 420.613281 328.800781 420.121094 328.460938 C 419.628906 328.117188 419.109375 327.820312 418.5625 327.566406 C 418.019531 327.3125 417.457031 327.109375 416.875 326.953125 C 416.296875 326.796875 415.707031 326.691406 415.109375 326.636719 C 414.511719 326.582031 413.910156 326.582031 413.3125 326.628906 C 412.714844 326.679688 412.125 326.78125 411.542969 326.929688 C 398.726562 326.929688 385.914062 326.929688 373.089844 326.929688 C 360.269531 326.929688 347.453125 326.929688 334.636719 326.929688 C 325.445312 326.929688 322.027344 330.308594 322.019531 339.304688 L 322.019531 355.574219 C 322.019531 417.945312 322.019531 480.304688 322.019531 542.65625 C 321.96875 543.679688 321.96875 544.703125 322.027344 545.726562 C 322.082031 546.75 322.191406 547.769531 322.351562 548.78125 C 322.511719 549.796875 322.726562 550.796875 322.992188 551.789062 C 323.257812 552.777344 323.574219 553.753906 323.941406 554.710938 C 324.308594 555.667969 324.722656 556.601562 325.1875 557.519531 C 325.652344 558.433594 326.160156 559.320312 326.71875 560.183594 C 327.273438 561.042969 327.875 561.875 328.515625 562.671875 C 329.160156 563.472656 329.84375 564.234375 330.566406 564.964844 C 331.289062 565.691406 332.046875 566.382812 332.839844 567.03125 C 333.632812 567.679688 334.460938 568.289062 335.316406 568.851562 C 336.175781 569.414062 337.058594 569.933594 337.96875 570.40625 C 338.878906 570.875 339.8125 571.300781 340.769531 571.675781 C 341.722656 572.050781 342.695312 572.375 343.683594 572.648438 C 344.675781 572.921875 345.675781 573.144531 346.6875 573.316406 C 347.699219 573.488281 348.714844 573.605469 349.742188 573.667969 C 350.765625 573.734375 351.789062 573.746094 352.816406 573.703125 C 421.617188 573.730469 490.425781 573.730469 559.234375 573.703125 C 628.042969 573.671875 696.851562 573.671875 765.660156 573.703125 C 766.683594 573.761719 767.710938 573.769531 768.738281 573.722656 C 769.765625 573.675781 770.789062 573.574219 771.804688 573.417969 C 772.820312 573.265625 773.828125 573.058594 774.820312 572.796875 C 775.816406 572.535156 776.792969 572.222656 777.757812 571.859375 C 778.71875 571.496094 779.65625 571.082031 780.574219 570.617188 C 781.492188 570.15625 782.382812 569.644531 783.25 569.085938 C 784.113281 568.53125 784.945312 567.929688 785.746094 567.285156 C 786.546875 566.640625 787.3125 565.957031 788.039062 565.230469 C 788.769531 564.503906 789.457031 563.742188 790.105469 562.945312 C 790.75 562.148438 791.355469 561.316406 791.917969 560.457031 C 792.476562 559.59375 792.988281 558.707031 793.457031 557.789062 C 793.921875 556.875 794.339844 555.9375 794.707031 554.976562 C 795.074219 554.019531 795.390625 553.042969 795.65625 552.046875 C 795.917969 551.054688 796.132812 550.050781 796.289062 549.035156 C 796.449219 548.019531 796.550781 547 796.601562 545.972656 C 796.652344 544.949219 796.652344 543.921875 796.59375 542.894531 C 796.652344 405.398438 796.652344 267.894531 796.59375 130.386719 C 796.648438 129.367188 796.648438 128.34375 796.59375 127.320312 C 796.542969 126.300781 796.4375 125.285156 796.277344 124.273438 C 796.117188 123.261719 795.90625 122.261719 795.640625 121.273438 C 795.375 120.285156 795.058594 119.3125 794.691406 118.355469 C 794.324219 117.402344 793.910156 116.46875 793.445312 115.554688 C 792.976562 114.644531 792.464844 113.757812 791.90625 112.902344 C 791.351562 112.042969 790.746094 111.214844 790.101562 110.421875 C 789.457031 109.625 788.773438 108.867188 788.046875 108.144531 C 787.324219 107.421875 786.5625 106.738281 785.765625 106.09375 C 784.96875 105.453125 784.140625 104.851562 783.28125 104.296875 C 782.417969 103.738281 781.53125 103.230469 780.621094 102.765625 C 779.707031 102.304688 778.769531 101.890625 777.8125 101.523438 C 776.855469 101.160156 775.882812 100.84375 774.894531 100.582031 C 773.902344 100.320312 772.902344 100.109375 771.890625 99.953125 C 770.878906 99.792969 769.859375 99.691406 768.835938 99.640625 C 767.8125 99.589844 766.789062 99.589844 765.769531 99.648438 Z M 554.789062 472.003906 C 553.785156 472.605469 552.890625 473.347656 552.109375 474.222656 C 551.328125 475.097656 550.695312 476.066406 550.210938 477.132812 C 549.726562 478.203125 549.410156 479.316406 549.265625 480.480469 C 549.117188 481.644531 549.148438 482.800781 549.355469 483.953125 C 549.492188 502.671875 549.472656 521.394531 549.449219 540.109375 L 549.449219 552.6875 C 549.421875 553.179688 549.34375 553.664062 549.214844 554.144531 L 356.40625 554.144531 C 344.507812 554.144531 341.769531 551.414062 341.769531 539.582031 L 341.769531 346.890625 L 396.519531 346.890625 C 390.058594 375.855469 396.132812 395.664062 415.550781 409.144531 C 416.621094 409.894531 417.722656 410.605469 418.847656 411.269531 C 419.976562 411.9375 421.125 412.5625 422.296875 413.144531 C 423.472656 413.726562 424.664062 414.261719 425.878906 414.753906 C 427.089844 415.242188 428.320312 415.6875 429.570312 416.089844 C 430.816406 416.488281 432.078125 416.839844 433.351562 417.140625 C 434.625 417.445312 435.90625 417.703125 437.199219 417.910156 C 438.492188 418.117188 439.792969 418.277344 441.097656 418.386719 C 442.402344 418.496094 443.707031 418.558594 445.015625 418.570312 C 446.328125 418.582031 447.632812 418.542969 448.941406 418.457031 C 450.246094 418.371094 451.550781 418.234375 452.84375 418.050781 C 454.140625 417.867188 455.429688 417.632812 456.707031 417.351562 C 457.988281 417.070312 459.253906 416.742188 460.507812 416.367188 C 461.761719 415.988281 463 415.566406 464.222656 415.097656 C 465.445312 414.628906 466.648438 414.113281 467.832031 413.554688 C 469.015625 412.992188 470.175781 412.390625 471.3125 411.742188 C 472.449219 411.097656 473.5625 410.40625 474.648438 409.675781 C 494.5625 396.40625 500.730469 376.960938 494.507812 346.820312 L 549.070312 346.820312 C 549.21875 347.746094 549.304688 348.679688 549.324219 349.621094 L 549.230469 368.125 C 549.121094 384.605469 549.011719 401.648438 549.230469 418.410156 C 549.382812 420.375 549.9375 422.21875 550.886719 423.945312 C 551.835938 425.667969 553.097656 427.121094 554.671875 428.304688 C 560.054688 431.945312 565.457031 427.3125 567.226562 425.792969 C 568.109375 425.015625 569.027344 424.285156 569.988281 423.605469 C 570.953125 422.925781 571.945312 422.300781 572.976562 421.730469 C 574.003906 421.15625 575.058594 420.640625 576.144531 420.183594 C 577.230469 419.726562 578.335938 419.328125 579.460938 418.992188 C 580.589844 418.652344 581.730469 418.375 582.890625 418.160156 C 584.046875 417.945312 585.210938 417.792969 586.386719 417.703125 C 587.558594 417.613281 588.734375 417.589844 589.910156 417.628906 C 591.085938 417.664062 592.257812 417.765625 593.425781 417.929688 C 594.589844 418.09375 595.742188 418.320312 596.882812 418.609375 C 598.027344 418.898438 599.148438 419.246094 600.25 419.65625 C 601.355469 420.066406 602.433594 420.535156 603.484375 421.0625 C 604.539062 421.589844 605.558594 422.171875 606.550781 422.808594 C 607.539062 423.445312 608.492188 424.132812 609.40625 424.871094 C 610.320312 425.609375 611.195312 426.398438 612.023438 427.230469 C 612.855469 428.066406 613.636719 428.941406 614.375 429.859375 C 615.109375 430.777344 615.792969 431.734375 616.425781 432.726562 C 617.058594 433.71875 617.632812 434.742188 618.15625 435.796875 C 618.675781 436.851562 619.140625 437.929688 619.542969 439.035156 C 619.949219 440.136719 620.292969 441.261719 620.578125 442.402344 C 620.859375 443.542969 621.082031 444.699219 621.238281 445.863281 C 621.398438 447.03125 621.492188 448.199219 621.523438 449.375 C 621.554688 450.550781 621.523438 451.726562 621.429688 452.898438 C 621.335938 454.070312 621.175781 455.234375 620.957031 456.390625 C 620.734375 457.542969 620.453125 458.683594 620.105469 459.808594 C 619.761719 460.933594 619.359375 462.035156 618.894531 463.117188 C 618.429688 464.199219 617.910156 465.253906 617.332031 466.277344 C 616.753906 467.300781 616.125 468.292969 615.441406 469.25 C 614.753906 470.207031 614.019531 471.125 613.238281 472 C 612.453125 472.878906 611.625 473.710938 610.75 474.5 C 609.875 475.285156 608.960938 476.023438 608.007812 476.714844 C 607.054688 477.402344 606.066406 478.039062 605.042969 478.621094 C 604.019531 479.203125 602.96875 479.730469 601.890625 480.199219 C 600.503906 480.859375 599.078125 481.414062 597.609375 481.863281 C 596.140625 482.308594 594.644531 482.648438 593.125 482.871094 C 591.605469 483.097656 590.078125 483.207031 588.542969 483.203125 C 587.007812 483.199219 585.480469 483.082031 583.964844 482.851562 C 582.445312 482.617188 580.953125 482.277344 579.488281 481.820312 C 578.019531 481.367188 576.59375 480.804688 575.214844 480.136719 C 573.832031 479.46875 572.503906 478.703125 571.238281 477.835938 C 569.96875 476.972656 568.773438 476.015625 567.648438 474.972656 C 567.277344 474.511719 566.867188 474.082031 566.421875 473.6875 C 565.980469 473.292969 565.503906 472.9375 565.003906 472.621094 C 564.5 472.308594 563.972656 472.035156 563.425781 471.808594 C 562.875 471.578125 562.3125 471.398438 561.734375 471.265625 C 561.152344 471.132812 560.566406 471.046875 559.976562 471.011719 C 559.382812 470.976562 558.789062 470.988281 558.199219 471.050781 C 557.609375 471.113281 557.027344 471.226562 556.453125 471.382812 C 555.882812 471.542969 555.328125 471.75 554.789062 472.003906 Z M 762.855469 554.171875 L 569.433594 554.171875 L 569.433594 499.257812 C 598.042969 507.691406 619.929688 499.742188 634.550781 475.628906 C 635.210938 474.519531 635.828125 473.386719 636.398438 472.230469 C 636.972656 471.078125 637.5 469.902344 637.980469 468.703125 C 638.464844 467.507812 638.898438 466.292969 639.285156 465.066406 C 639.675781 463.835938 640.015625 462.589844 640.304688 461.335938 C 640.597656 460.078125 640.839844 458.8125 641.035156 457.539062 C 641.226562 456.261719 641.371094 454.984375 641.464844 453.695312 C 641.5625 452.410156 641.605469 451.121094 641.601562 449.832031 C 641.59375 448.542969 641.539062 447.257812 641.433594 445.972656 C 641.328125 444.6875 641.175781 443.40625 640.972656 442.132812 C 640.765625 440.859375 640.515625 439.597656 640.210938 438.34375 C 639.910156 437.089844 639.558594 435.847656 639.164062 434.621094 C 638.765625 433.394531 638.320312 432.183594 637.828125 430.992188 C 637.335938 429.800781 636.800781 428.628906 636.21875 427.476562 C 635.636719 426.328125 635.007812 425.199219 634.339844 424.097656 C 633.667969 422.996094 632.957031 421.921875 632.207031 420.871094 C 631.453125 419.824219 630.660156 418.808594 629.828125 417.820312 C 614.210938 399.054688 593.847656 393.539062 569.28125 401.386719 L 569.28125 346.558594 C 569.871094 346.453125 570.464844 346.394531 571.066406 346.382812 L 582.53125 346.382812 C 601.628906 346.382812 620.730469 346.382812 639.832031 346.484375 L 640.125 346.484375 C 640.671875 346.574219 641.226562 346.617188 641.785156 346.621094 C 642.339844 346.621094 642.894531 346.578125 643.445312 346.492188 C 643.996094 346.40625 644.535156 346.277344 645.0625 346.105469 C 645.59375 345.933594 646.105469 345.71875 646.601562 345.46875 C 647.097656 345.214844 647.570312 344.921875 648.019531 344.59375 C 648.46875 344.265625 648.890625 343.902344 649.28125 343.507812 C 649.675781 343.113281 650.035156 342.691406 650.359375 342.238281 C 650.683594 341.785156 650.96875 341.3125 651.21875 340.8125 C 651.636719 339.757812 651.886719 338.660156 651.96875 337.527344 C 652.050781 336.394531 651.960938 335.277344 651.699219 334.171875 C 651.4375 333.066406 651.019531 332.023438 650.441406 331.046875 C 649.863281 330.066406 649.148438 329.199219 648.304688 328.4375 C 647.882812 327.953125 647.476562 327.457031 647.085938 326.949219 C 646.695312 326.4375 646.320312 325.917969 645.957031 325.386719 C 645.597656 324.855469 645.25 324.316406 644.921875 323.761719 C 644.59375 323.210938 644.28125 322.652344 643.984375 322.082031 C 643.691406 321.511719 643.410156 320.933594 643.148438 320.347656 C 642.886719 319.761719 642.644531 319.167969 642.417969 318.566406 C 642.191406 317.964844 641.980469 317.359375 641.789062 316.746094 C 641.601562 316.132812 641.425781 315.515625 641.273438 314.890625 C 641.117188 314.269531 640.984375 313.640625 640.863281 313.011719 C 640.746094 312.378906 640.648438 311.746094 640.570312 311.109375 C 640.488281 310.472656 640.429688 309.832031 640.386719 309.191406 C 640.34375 308.550781 640.320312 307.910156 640.316406 307.269531 C 640.3125 306.625 640.324219 305.984375 640.359375 305.34375 C 640.394531 304.703125 640.445312 304.0625 640.515625 303.425781 C 640.585938 302.789062 640.675781 302.152344 640.785156 301.519531 C 640.894531 300.886719 641.023438 300.257812 641.167969 299.632812 C 641.3125 299.007812 641.476562 298.386719 641.660156 297.773438 C 641.84375 297.15625 642.042969 296.546875 642.261719 295.941406 C 642.480469 295.339844 642.714844 294.742188 642.96875 294.152344 C 643.222656 293.5625 643.496094 292.980469 643.78125 292.40625 C 644.070312 291.832031 644.375 291.269531 644.695312 290.710938 C 645.019531 290.15625 645.355469 289.609375 645.710938 289.074219 C 646.0625 288.539062 646.433594 288.011719 646.816406 287.5 C 647.199219 286.984375 647.601562 286.484375 648.015625 285.992188 C 648.429688 285.5 648.855469 285.023438 649.300781 284.558594 C 649.742188 284.09375 650.199219 283.640625 650.667969 283.203125 C 651.136719 282.761719 651.617188 282.339844 652.113281 281.929688 C 652.605469 281.519531 653.113281 281.121094 653.628906 280.742188 C 654.148438 280.363281 654.675781 279.996094 655.214844 279.648438 C 655.753906 279.296875 656.300781 278.964844 656.859375 278.648438 C 657.417969 278.332031 657.988281 278.03125 658.5625 277.746094 C 659.140625 277.464844 659.722656 277.199219 660.316406 276.949219 C 660.910156 276.699219 661.507812 276.46875 662.113281 276.253906 C 662.71875 276.039062 663.332031 275.84375 663.949219 275.667969 C 664.566406 275.488281 665.1875 275.328125 665.8125 275.1875 C 666.441406 275.046875 667.070312 274.925781 667.707031 274.820312 C 668.339844 274.71875 668.976562 274.632812 669.613281 274.566406 C 670.253906 274.5 670.894531 274.453125 671.535156 274.421875 C 672.179688 274.394531 672.820312 274.382812 673.460938 274.394531 C 674.105469 274.402344 674.746094 274.429688 675.386719 274.476562 C 676.027344 274.523438 676.667969 274.589844 677.304688 274.675781 C 677.941406 274.757812 678.574219 274.863281 679.207031 274.984375 C 679.835938 275.105469 680.464844 275.246094 681.085938 275.40625 C 681.707031 275.566406 682.324219 275.742188 682.9375 275.9375 C 683.550781 276.132812 684.15625 276.34375 684.753906 276.578125 C 685.355469 276.808594 685.945312 277.054688 686.53125 277.320312 C 687.117188 277.585938 687.691406 277.871094 688.261719 278.167969 C 688.828125 278.46875 689.386719 278.785156 689.9375 279.117188 C 690.484375 279.453125 691.027344 279.800781 691.554688 280.164062 C 692.082031 280.527344 692.601562 280.910156 693.105469 281.304688 C 693.613281 281.699219 694.109375 282.109375 694.589844 282.53125 C 695.074219 282.957031 695.542969 283.394531 696 283.847656 C 696.453125 284.296875 696.898438 284.761719 697.328125 285.242188 C 697.753906 285.71875 698.171875 286.207031 698.570312 286.710938 C 698.96875 287.214844 699.355469 287.726562 699.726562 288.253906 C 700.09375 288.777344 700.449219 289.3125 700.785156 289.859375 C 701.125 290.402344 701.445312 290.960938 701.753906 291.523438 C 702.058594 292.089844 702.347656 292.664062 702.617188 293.242188 C 702.890625 293.824219 703.144531 294.414062 703.378906 295.011719 C 703.617188 295.609375 703.835938 296.210938 704.035156 296.820312 C 704.238281 297.429688 704.421875 298.046875 704.585938 298.667969 C 704.75 299.289062 704.898438 299.910156 705.023438 300.542969 C 705.152344 301.171875 705.261719 301.800781 705.351562 302.4375 C 705.445312 303.074219 705.515625 303.710938 705.570312 304.351562 C 705.753906 306.53125 705.714844 308.707031 705.453125 310.882812 C 705.191406 313.054688 704.710938 315.175781 704.015625 317.253906 C 703.316406 319.328125 702.417969 321.308594 701.3125 323.199219 C 700.210938 325.089844 698.925781 326.847656 697.460938 328.476562 C 697.011719 328.828125 696.59375 329.214844 696.210938 329.636719 C 695.824219 330.0625 695.480469 330.511719 695.171875 330.992188 C 694.863281 331.472656 694.597656 331.976562 694.371094 332.503906 C 694.148438 333.027344 693.96875 333.566406 693.835938 334.121094 C 693.703125 334.675781 693.617188 335.238281 693.578125 335.808594 C 693.539062 336.378906 693.546875 336.949219 693.601562 337.515625 C 693.65625 338.085938 693.761719 338.644531 693.910156 339.195312 C 694.0625 339.746094 694.253906 340.28125 694.496094 340.800781 C 694.777344 341.308594 695.09375 341.796875 695.453125 342.257812 C 695.808594 342.722656 696.199219 343.152344 696.625 343.554688 C 697.046875 343.953125 697.5 344.320312 697.980469 344.652344 C 698.460938 344.980469 698.964844 345.273438 699.492188 345.527344 C 700.019531 345.777344 700.5625 345.988281 701.121094 346.15625 C 701.679688 346.324219 702.25 346.449219 702.828125 346.527344 C 703.40625 346.605469 703.988281 346.640625 704.574219 346.628906 C 705.15625 346.621094 705.738281 346.5625 706.3125 346.460938 C 724.082031 346.308594 741.835938 346.332031 759.890625 346.351562 L 776.921875 346.351562 L 776.921875 346.78125 C 777.023438 348.179688 777.117188 349.503906 777.117188 350.828125 C 777.117188 413.78125 777.117188 476.730469 777.117188 539.679688 C 777.164062 551.054688 774.09375 554.164062 762.855469 554.171875 Z M 777.164062 326.414062 L 722.070312 326.414062 C 730.46875 298.0625 722.6875 276.273438 698.925781 261.628906 C 697.8125 260.949219 696.675781 260.316406 695.515625 259.722656 C 694.351562 259.132812 693.167969 258.589844 691.964844 258.089844 C 690.761719 257.59375 689.539062 257.140625 688.300781 256.738281 C 687.0625 256.335938 685.808594 255.980469 684.542969 255.675781 C 683.273438 255.371094 681.996094 255.113281 680.710938 254.90625 C 679.421875 254.703125 678.128906 254.546875 676.832031 254.441406 C 675.53125 254.335938 674.230469 254.28125 672.929688 254.273438 C 671.625 254.269531 670.324219 254.316406 669.023438 254.414062 C 667.722656 254.511719 666.429688 254.660156 665.140625 254.859375 C 663.855469 255.054688 662.574219 255.304688 661.308594 255.601562 C 660.039062 255.898438 658.78125 256.246094 657.539062 256.640625 C 656.300781 257.035156 655.074219 257.480469 653.867188 257.96875 C 652.660156 258.460938 651.472656 258.996094 650.308594 259.582031 C 649.144531 260.164062 648.003906 260.789062 646.886719 261.460938 C 645.769531 262.132812 644.679688 262.847656 643.621094 263.605469 C 642.558594 264.363281 641.53125 265.160156 640.53125 265.996094 C 621.664062 281.648438 616.125 301.984375 624.058594 326.496094 L 568.921875 326.496094 L 568.921875 307.355469 C 568.921875 290.585938 568.921875 273.8125 568.921875 257.042969 C 569.074219 256.464844 569.175781 255.878906 569.226562 255.285156 C 569.277344 254.691406 569.277344 254.097656 569.226562 253.503906 C 569.175781 252.90625 569.074219 252.320312 568.921875 251.746094 C 568.769531 251.167969 568.570312 250.609375 568.324219 250.066406 C 568.074219 249.523438 567.78125 249.007812 567.445312 248.515625 C 567.105469 248.023438 566.730469 247.5625 566.3125 247.132812 C 565.894531 246.707031 565.445312 246.320312 564.960938 245.96875 C 564.480469 245.617188 563.96875 245.3125 563.433594 245.050781 C 562.894531 244.789062 562.339844 244.574219 561.769531 244.40625 C 561.195312 244.238281 560.613281 244.121094 560.019531 244.054688 C 559.425781 243.988281 558.828125 243.972656 558.234375 244.007812 C 557.636719 244.046875 557.050781 244.132812 556.46875 244.269531 C 555.886719 244.40625 555.320312 244.589844 554.773438 244.824219 C 554.222656 245.058594 553.699219 245.335938 553.195312 245.660156 C 552.695312 245.984375 552.226562 246.351562 551.789062 246.753906 C 551.347656 247.160156 550.949219 247.601562 550.585938 248.074219 C 549.792969 248.746094 548.972656 249.378906 548.117188 249.96875 C 547.265625 250.5625 546.386719 251.109375 545.480469 251.617188 C 544.574219 252.125 543.648438 252.589844 542.695312 253.007812 C 541.746094 253.425781 540.777344 253.796875 539.792969 254.121094 C 538.804688 254.445312 537.804688 254.722656 536.792969 254.953125 C 535.78125 255.179688 534.757812 255.359375 533.726562 255.488281 C 532.699219 255.621094 531.664062 255.699219 530.625 255.730469 C 529.585938 255.761719 528.550781 255.742188 527.515625 255.675781 C 526.476562 255.605469 525.449219 255.488281 524.421875 255.320312 C 523.398438 255.152344 522.382812 254.933594 521.378906 254.667969 C 520.375 254.402344 519.386719 254.089844 518.414062 253.726562 C 517.441406 253.367188 516.488281 252.960938 515.550781 252.507812 C 514.617188 252.054688 513.707031 251.558594 512.820312 251.015625 C 511.933594 250.476562 511.074219 249.894531 510.246094 249.273438 C 509.414062 248.648438 508.617188 247.988281 507.851562 247.289062 C 507.082031 246.585938 506.351562 245.851562 505.65625 245.082031 C 504.957031 244.316406 504.296875 243.519531 503.671875 242.6875 C 503.046875 241.859375 502.464844 241.003906 501.921875 240.117188 C 501.378906 239.234375 500.878906 238.324219 500.425781 237.394531 C 499.96875 236.460938 499.554688 235.511719 499.191406 234.539062 C 498.824219 233.570312 498.503906 232.582031 498.230469 231.582031 C 497.957031 230.582031 497.734375 229.570312 497.554688 228.546875 C 497.378906 227.527344 497.25 226.5 497.171875 225.464844 C 497.089844 224.429688 497.0625 223.394531 497.078125 222.355469 C 497.097656 221.320312 497.164062 220.285156 497.28125 219.253906 C 497.398438 218.222656 497.5625 217.203125 497.777344 216.1875 C 497.988281 215.171875 498.25 214.167969 498.558594 213.179688 C 498.867188 212.1875 499.222656 211.214844 499.621094 210.257812 C 500.023438 209.300781 500.46875 208.363281 500.957031 207.449219 C 501.445312 206.535156 501.976562 205.644531 502.550781 204.78125 C 503.125 203.914062 503.738281 203.078125 504.390625 202.273438 C 505.042969 201.464844 505.730469 200.691406 506.457031 199.949219 C 507.179688 199.207031 507.9375 198.496094 508.726562 197.824219 C 509.519531 197.152344 510.339844 196.519531 511.191406 195.929688 C 512.042969 195.335938 512.921875 194.785156 513.824219 194.277344 C 514.730469 193.769531 515.65625 193.308594 516.605469 192.886719 C 517.554688 192.46875 518.523438 192.097656 519.507812 191.773438 C 520.496094 191.449219 521.492188 191.171875 522.507812 190.941406 C 523.519531 190.710938 524.539062 190.535156 525.570312 190.402344 C 526.597656 190.273438 527.632812 190.191406 528.667969 190.160156 C 529.707031 190.128906 530.742188 190.148438 531.777344 190.21875 C 532.816406 190.289062 533.84375 190.40625 534.867188 190.574219 C 535.894531 190.742188 536.90625 190.960938 537.910156 191.226562 C 538.914062 191.492188 539.902344 191.808594 540.875 192.167969 C 541.847656 192.53125 542.800781 192.9375 543.730469 193.390625 C 544.664062 193.84375 545.574219 194.34375 546.460938 194.882812 C 547.347656 195.425781 548.203125 196.007812 549.03125 196.632812 C 549.859375 197.253906 550.660156 197.917969 551.421875 198.617188 C 551.804688 199.046875 552.222656 199.441406 552.671875 199.800781 C 553.121094 200.15625 553.597656 200.476562 554.101562 200.757812 C 554.601562 201.035156 555.125 201.269531 555.667969 201.460938 C 556.210938 201.652344 556.765625 201.796875 557.332031 201.894531 C 557.898438 201.996094 558.46875 202.046875 559.042969 202.046875 C 559.617188 202.050781 560.1875 202.003906 560.757812 201.910156 C 561.324219 201.820312 561.878906 201.679688 562.425781 201.492188 C 562.96875 201.304688 563.492188 201.078125 564 200.800781 C 564.945312 200.203125 565.785156 199.484375 566.519531 198.644531 C 567.257812 197.800781 567.859375 196.871094 568.324219 195.855469 C 568.789062 194.839844 569.101562 193.777344 569.257812 192.671875 C 569.414062 191.5625 569.410156 190.457031 569.242188 189.351562 C 569.046875 171.773438 569.070312 154.554688 569.097656 136.335938 L 569.097656 119.46875 L 569.519531 119.46875 C 570.917969 119.359375 572.246094 119.257812 573.570312 119.257812 C 636.78125 119.257812 699.984375 119.257812 763.1875 119.257812 C 774.175781 119.257812 777.183594 122.316406 777.191406 133.46875 C 777.191406 180.691406 777.191406 227.914062 777.191406 275.132812 Z M 364.703125 238.667969 L 376.164062 243.242188 C 386.65625 247.425781 396.914062 251.515625 407.1875 255.558594 C 414.617188 258.46875 419.375 256.628906 422.15625 249.734375 C 429.851562 230.734375 437.800781 211.085938 445.253906 191.238281 C 445.535156 190.292969 445.707031 189.332031 445.765625 188.347656 C 445.824219 187.363281 445.769531 186.386719 445.601562 185.417969 C 445.433594 184.449219 445.15625 183.511719 444.769531 182.605469 C 444.382812 181.699219 443.898438 180.847656 443.316406 180.054688 C 441.203125 177.652344 436.757812 177.703125 433.0625 177.75 C 431.132812 177.816406 429.214844 178.03125 427.316406 178.394531 C 426.597656 178.503906 425.875 178.574219 425.148438 178.613281 C 424.425781 178.652344 423.699219 178.65625 422.972656 178.625 C 422.246094 178.59375 421.523438 178.53125 420.804688 178.433594 C 420.085938 178.335938 419.371094 178.207031 418.664062 178.039062 C 417.957031 177.875 417.257812 177.679688 416.570312 177.449219 C 415.882812 177.21875 415.203125 176.957031 414.539062 176.664062 C 413.875 176.371094 413.226562 176.046875 412.59375 175.691406 C 411.960938 175.335938 411.34375 174.953125 410.746094 174.542969 C 410.148438 174.128906 409.570312 173.691406 409.015625 173.222656 C 408.457031 172.757812 407.925781 172.265625 407.414062 171.75 C 406.902344 171.234375 406.417969 170.695312 405.960938 170.132812 C 405.5 169.570312 405.066406 168.988281 404.664062 168.386719 C 404.257812 167.78125 403.882812 167.164062 403.535156 166.523438 C 403.1875 165.886719 402.871094 165.234375 402.585938 164.566406 C 402.300781 163.898438 402.046875 163.21875 401.828125 162.527344 C 401.605469 161.839844 401.417969 161.136719 401.261719 160.429688 C 401.105469 159.71875 400.984375 159.003906 400.894531 158.285156 C 400.804688 157.566406 400.75 156.84375 400.730469 156.117188 C 400.710938 155.390625 400.722656 154.667969 400.773438 153.941406 C 400.820312 153.21875 400.902344 152.496094 401.015625 151.78125 C 401.132812 151.066406 401.28125 150.355469 401.460938 149.652344 C 401.644531 148.949219 401.859375 148.257812 402.105469 147.574219 C 402.351562 146.890625 402.628906 146.222656 402.941406 145.566406 C 403.25 144.910156 403.589844 144.269531 403.960938 143.644531 C 404.332031 143.019531 404.730469 142.414062 405.15625 141.828125 C 405.582031 141.242188 406.035156 140.675781 406.515625 140.132812 C 406.996094 139.585938 407.503906 139.066406 408.03125 138.570312 C 408.5625 138.070312 409.113281 137.601562 409.683594 137.15625 C 410.257812 136.710938 410.851562 136.292969 411.464844 135.902344 C 412.078125 135.511719 412.707031 135.152344 413.355469 134.820312 C 414 134.492188 414.660156 134.191406 415.335938 133.921875 C 416.011719 133.652344 416.695312 133.417969 417.394531 133.214844 C 418.675781 132.8125 419.988281 132.523438 421.320312 132.347656 C 422.65625 132.175781 423.996094 132.117188 425.339844 132.175781 C 426.683594 132.234375 428.011719 132.410156 429.324219 132.699219 C 430.640625 132.988281 431.917969 133.390625 433.164062 133.902344 C 434.40625 134.414062 435.597656 135.03125 436.734375 135.75 C 437.871094 136.46875 438.9375 137.28125 439.933594 138.1875 C 440.925781 139.09375 441.835938 140.074219 442.660156 141.140625 C 443.484375 142.203125 444.210938 143.328125 444.835938 144.519531 C 446.292969 147.066406 449.800781 153.027344 455.765625 151.171875 C 457.660156 150.460938 459.34375 149.414062 460.820312 148.03125 C 462.296875 146.648438 463.449219 145.035156 464.28125 143.191406 C 470.695312 127.972656 476.871094 112.363281 482.839844 97.265625 L 486.691406 87.527344 C 490.035156 79.089844 488.148438 74.695312 479.609375 71.28125 C 471.074219 67.867188 462.746094 64.574219 454.308594 61.234375 L 408.316406 43.015625 C 383.09375 32.996094 357.863281 23.003906 332.628906 13.03125 C 331.835938 12.644531 331.023438 12.300781 330.195312 12 C 329.367188 11.699219 328.523438 11.441406 327.667969 11.230469 C 326.8125 11.015625 325.945312 10.847656 325.070312 10.726562 C 324.199219 10.605469 323.320312 10.527344 322.4375 10.5 C 321.558594 10.46875 320.675781 10.484375 319.796875 10.546875 C 318.917969 10.609375 318.042969 10.71875 317.175781 10.871094 C 316.304688 11.027344 315.449219 11.226562 314.601562 11.472656 C 313.753906 11.714844 312.921875 12.003906 312.101562 12.335938 C 311.285156 12.667969 310.488281 13.039062 309.710938 13.453125 C 308.933594 13.871094 308.179688 14.324219 307.449219 14.820312 C 306.71875 15.3125 306.015625 15.84375 305.339844 16.414062 C 304.667969 16.980469 304.023438 17.582031 303.414062 18.21875 C 302.800781 18.855469 302.226562 19.519531 301.683594 20.214844 C 301.144531 20.914062 300.640625 21.632812 300.175781 22.382812 C 299.710938 23.132812 299.285156 23.902344 298.902344 24.695312 C 298.515625 25.488281 298.175781 26.300781 297.875 27.128906 C 278 76.730469 258.242188 126.382812 238.601562 176.082031 C 238.394531 176.425781 238.210938 176.777344 238.046875 177.144531 C 237.882812 177.507812 237.738281 177.882812 237.621094 178.265625 C 237.5 178.648438 237.402344 179.035156 237.328125 179.429688 C 237.253906 179.824219 237.207031 180.21875 237.179688 180.621094 C 237.152344 181.019531 237.152344 181.417969 237.171875 181.820312 C 237.195312 182.21875 237.238281 182.617188 237.308594 183.011719 C 237.375 183.40625 237.46875 183.796875 237.582031 184.179688 C 237.699219 184.5625 237.835938 184.9375 237.996094 185.304688 C 238.15625 185.671875 238.335938 186.03125 238.539062 186.375 C 238.742188 186.722656 238.960938 187.054688 239.203125 187.375 C 239.445312 187.691406 239.707031 187.996094 239.984375 188.285156 C 240.261719 188.574219 240.558594 188.84375 240.867188 189.097656 C 241.175781 189.351562 241.5 189.585938 241.839844 189.800781 C 242.179688 190.015625 242.527344 190.210938 242.890625 190.382812 C 243.25 190.558594 243.621094 190.707031 244 190.835938 C 244.378906 190.96875 244.765625 191.074219 245.160156 191.15625 C 253.558594 194.570312 261.972656 197.917969 270.394531 201.273438 L 284.804688 207.03125 C 285.789062 207.425781 286.75 207.878906 287.757812 208.34375 C 287.035156 209.207031 286.347656 210.09375 285.699219 211.011719 C 285.050781 211.929688 284.4375 212.871094 283.863281 213.835938 C 283.289062 214.800781 282.753906 215.789062 282.257812 216.796875 C 281.761719 217.804688 281.304688 218.832031 280.890625 219.875 C 280.476562 220.917969 280.105469 221.980469 279.777344 223.054688 C 279.445312 224.128906 279.160156 225.210938 278.917969 226.308594 C 278.675781 227.40625 278.476562 228.511719 278.324219 229.625 C 278.167969 230.738281 278.058594 231.855469 277.992188 232.976562 C 277.929688 234.097656 277.910156 235.21875 277.933594 236.34375 C 277.957031 237.464844 278.027344 238.585938 278.140625 239.703125 C 278.253906 240.824219 278.414062 241.933594 278.617188 243.039062 C 278.820312 244.144531 279.066406 245.238281 279.355469 246.324219 C 279.648438 247.410156 279.980469 248.480469 280.355469 249.539062 C 280.730469 250.597656 281.148438 251.640625 281.609375 252.667969 C 282.070312 253.691406 282.566406 254.699219 283.109375 255.683594 C 283.648438 256.667969 284.226562 257.632812 284.84375 258.570312 C 285.710938 260.113281 286.675781 261.589844 287.742188 263.003906 C 288.808594 264.417969 289.960938 265.757812 291.203125 267.019531 C 292.445312 268.28125 293.765625 269.453125 295.164062 270.539062 C 296.5625 271.625 298.027344 272.613281 299.558594 273.503906 C 301.085938 274.398438 302.667969 275.183594 304.304688 275.867188 C 305.9375 276.546875 307.609375 277.117188 309.320312 277.578125 C 311.03125 278.039062 312.765625 278.382812 314.519531 278.613281 C 316.277344 278.84375 318.039062 278.957031 319.8125 278.953125 C 322.046875 278.949219 324.273438 278.789062 326.484375 278.472656 C 348.160156 275.351562 360.996094 261.976562 364.703125 238.667969 Z M 298.992188 243.285156 C 298.578125 242.078125 298.269531 240.84375 298.0625 239.589844 C 297.851562 238.332031 297.746094 237.066406 297.746094 235.789062 C 297.742188 234.515625 297.84375 233.25 298.046875 231.992188 C 298.253906 230.734375 298.558594 229.5 298.964844 228.292969 C 299.371094 227.082031 299.871094 225.914062 300.46875 224.789062 C 301.0625 223.660156 301.746094 222.589844 302.519531 221.574219 C 303.292969 220.5625 304.140625 219.613281 305.066406 218.738281 C 305.992188 217.863281 306.984375 217.066406 308.039062 216.351562 C 308.6875 215.914062 309.371094 215.5 310.058594 215.089844 C 313.574219 212.972656 317.960938 210.34375 317.132812 204.113281 C 316.300781 197.882812 311.339844 196.105469 307.347656 194.652344 C 306.734375 194.425781 306.121094 194.207031 305.523438 193.964844 L 259.898438 175.90625 L 260.171875 175.179688 C 260.742188 173.605469 261.28125 172.105469 261.871094 170.628906 L 264.945312 162.847656 C 281.683594 120.777344 298.4375 78.714844 315.214844 36.660156 C 317.792969 30.1875 320.050781 29.148438 326.253906 31.601562 C 365.65625 47.199219 405.050781 62.820312 444.4375 78.472656 L 464.109375 86.28125 C 464.617188 86.488281 465.113281 86.734375 465.761719 87.054688 L 451.816406 122.207031 C 432.949219 109.046875 414.703125 108.914062 397.570312 121.8125 C 395.9375 122.972656 394.402344 124.246094 392.964844 125.632812 C 391.523438 127.019531 390.195312 128.507812 388.976562 130.09375 C 387.761719 131.679688 386.667969 133.347656 385.699219 135.097656 C 384.730469 136.847656 383.898438 138.660156 383.203125 140.53125 C 382.503906 142.40625 381.949219 144.320312 381.539062 146.277344 C 381.128906 148.234375 380.867188 150.210938 380.75 152.207031 C 380.636719 154.203125 380.667969 156.195312 380.851562 158.1875 C 381.035156 160.175781 381.363281 162.144531 381.839844 164.085938 C 386.042969 184.042969 399.273438 195.808594 421.183594 199.082031 L 407.179688 234.367188 L 361.464844 216.261719 C 361.101562 216.113281 360.753906 215.9375 360.414062 215.746094 C 359.363281 215.128906 358.230469 214.773438 357.019531 214.675781 C 356.289062 214.675781 355.488281 214.675781 354.695312 214.675781 C 353.183594 214.441406 351.675781 214.46875 350.175781 214.757812 C 348.675781 215.050781 347.265625 215.585938 345.953125 216.363281 C 343.511719 218.382812 343.460938 222.828125 343.417969 226.402344 L 343.417969 227.050781 C 343.433594 229.050781 343.589844 231.035156 343.890625 233.011719 C 344.324219 235.457031 344.417969 237.910156 344.167969 240.378906 C 343.953125 241.632812 343.632812 242.859375 343.210938 244.058594 C 342.789062 245.257812 342.269531 246.414062 341.65625 247.527344 C 341.039062 248.640625 340.335938 249.695312 339.542969 250.6875 C 338.75 251.683594 337.878906 252.605469 336.933594 253.453125 C 335.984375 254.304688 334.972656 255.066406 333.898438 255.746094 C 332.824219 256.425781 331.699219 257.011719 330.523438 257.503906 C 329.351562 257.996094 328.144531 258.386719 326.90625 258.675781 C 325.667969 258.964844 324.410156 259.148438 323.140625 259.226562 C 321.84375 259.332031 320.546875 259.328125 319.246094 259.214844 C 317.949219 259.101562 316.671875 258.886719 315.410156 258.5625 C 314.148438 258.238281 312.921875 257.808594 311.730469 257.28125 C 310.542969 256.753906 309.402344 256.132812 308.316406 255.414062 C 307.230469 254.695312 306.210938 253.894531 305.257812 253.007812 C 304.304688 252.121094 303.429688 251.160156 302.636719 250.128906 C 301.84375 249.097656 301.140625 248.007812 300.527344 246.859375 C 299.917969 245.710938 299.402344 244.519531 298.992188 243.285156 Z M 298.992188 243.285156 " fill-opacity="1" fill-rule="nonzero"/></g></svg>